<svg width="80" height="80" viewBox="0 0 80 80" fill="none" xmlns="http://www.w3.org/2000/svg">
<path d="M80 40C80 42.5523 76.4644 44.749 75.9833 47.1548C75.4812 49.6444 77.908 53.0126 76.9665 55.3138C76.0042 57.6569 71.9038 58.3054 70.5021 60.3766C69.1004 62.4686 70.0418 66.5063 68.2845 68.2845C66.5063 70.0628 62.4686 69.1004 60.3766 70.5021C58.3055 71.8828 57.636 75.9833 55.3138 76.9665C53.0126 77.908 49.6653 75.5021 47.1548 75.9833C44.728 76.4644 42.5523 80 40 80C37.4477 80 35.251 76.4644 32.8452 75.9833C30.3556 75.4812 26.9874 77.908 24.6862 76.9665C22.3431 76.0042 21.6946 71.9038 19.6234 70.5021C17.5314 69.1004 13.4937 70.0418 11.7155 68.2845C9.93724 66.5063 10.8996 62.4686 9.49791 60.3766C8.11716 58.3054 4.01674 57.636 3.03347 55.3138C2.09205 53.0126 4.49791 49.6653 4.01674 47.1548C3.53557 44.728 0 42.5523 0 40C0 37.4477 3.53557 35.251 4.01674 32.8452C4.51883 30.3556 2.09205 26.9874 3.03347 24.6862C3.99582 22.3431 8.09624 21.6946 9.49791 19.6234C10.8996 17.5314 9.95816 13.4937 11.7155 11.7155C13.4937 9.93724 17.5314 10.8996 19.6234 9.49791C21.6946 8.11715 22.364 4.01674 24.6862 3.03347C26.9874 2.09205 30.3347 4.4979 32.8452 4.01673C35.272 3.53556 37.4477 0 40 0C42.5523 0 44.749 3.53556 47.1548 4.01673C49.6444 4.51883 53.0126 2.09205 55.3138 3.03347C57.6569 3.99582 58.3055 8.09623 60.3766 9.49791C62.4686 10.8996 66.5063 9.95816 68.2845 11.7155C70.0628 13.4937 69.1004 17.5314 70.5021 19.6234C71.8829 21.6946 75.9833 22.364 76.9665 24.6862C77.908 26.9874 75.5021 30.3347 75.9833 32.8452C76.4644 35.272 80 37.4477 80 40Z" fill="#B6CCFE"/>
<path d="M38.7333 43.9337L36.2666 46.4003C35.7466 46.9203 34.92 46.9203 34.3866 46.4137C34.24 46.267 34.0933 46.1337 33.9466 45.987C32.5733 44.6003 31.3333 43.147 30.2266 41.627C29.1333 40.107 28.2533 38.587 27.6133 37.0803C26.9866 35.5603 26.6666 34.107 26.6666 32.7203C26.6666 31.8137 26.8266 30.947 27.1466 30.147C27.4666 29.3337 27.9733 28.587 28.68 27.9203C29.5333 27.0803 30.4666 26.667 31.4533 26.667C31.8266 26.667 32.2 26.747 32.5333 26.907C32.88 27.067 33.1866 27.307 33.4266 27.6537L36.52 32.0137C36.76 32.347 36.9333 32.6537 37.0533 32.947C37.1733 33.227 37.24 33.507 37.24 33.7603C37.24 34.0803 37.1466 34.4003 36.96 34.707C36.7866 35.0137 36.5333 35.3337 36.2133 35.6537L35.2 36.707C35.0533 36.8537 34.9866 37.027 34.9866 37.2403C34.9866 37.347 35 37.4403 35.0266 37.547C35.0666 37.6537 35.1066 37.7337 35.1333 37.8137C35.3733 38.2537 35.7866 38.827 36.3733 39.5203C36.9733 40.2137 37.6133 40.9203 38.3066 41.627C38.44 41.7603 38.5866 41.8937 38.72 42.027C39.2533 42.547 39.2666 43.4003 38.7333 43.9337Z" fill="#1B1F23"/>
<path d="M53.2934 48.4397C53.2934 48.8131 53.2267 49.1997 53.0934 49.5731C53.0534 49.6797 53.0134 49.7864 52.96 49.8931C52.7334 50.3731 52.4401 50.8264 52.0534 51.2531C51.4001 51.9731 50.68 52.4931 49.8667 52.8264C49.8534 52.8264 49.84 52.8397 49.8267 52.8397C49.04 53.1597 48.1867 53.3331 47.2667 53.3331C45.9067 53.3331 44.4534 53.0131 42.92 52.3597C41.3867 51.7064 39.8534 50.8264 38.3334 49.7197C37.8134 49.3331 37.2934 48.9464 36.8 48.5331L41.16 44.1731C41.5334 44.4531 41.8667 44.6664 42.1467 44.8131C42.2134 44.8397 42.2934 44.8797 42.3867 44.9197C42.4934 44.9597 42.6 44.9731 42.72 44.9731C42.9467 44.9731 43.12 44.8931 43.2667 44.7464L44.28 43.7464C44.6134 43.4131 44.9334 43.1597 45.24 42.9997C45.5467 42.8131 45.8534 42.7197 46.1867 42.7197C46.44 42.7197 46.7067 42.7731 47 42.8931C47.2934 43.0131 47.6 43.1864 47.9334 43.4131L52.3467 46.5464C52.6934 46.7864 52.9334 47.0664 53.08 47.3997C53.2134 47.7331 53.2934 48.0664 53.2934 48.4397Z" fill="#1B1F23"/>
</svg>
