<svg width="80" height="80" viewBox="0 0 80 80" fill="none" xmlns="http://www.w3.org/2000/svg">
<path d="M80 40C80 42.5523 76.4644 44.749 75.9833 47.1548C75.4812 49.6444 77.908 53.0126 76.9665 55.3138C76.0042 57.6569 71.9038 58.3054 70.5021 60.3766C69.1004 62.4686 70.0418 66.5063 68.2845 68.2845C66.5063 70.0628 62.4686 69.1004 60.3766 70.5021C58.3055 71.8828 57.636 75.9833 55.3138 76.9665C53.0126 77.908 49.6653 75.5021 47.1548 75.9833C44.728 76.4644 42.5523 80 40 80C37.4477 80 35.251 76.4644 32.8452 75.9833C30.3556 75.4812 26.9874 77.908 24.6862 76.9665C22.3431 76.0042 21.6946 71.9038 19.6234 70.5021C17.5314 69.1004 13.4937 70.0418 11.7155 68.2845C9.93724 66.5063 10.8996 62.4686 9.49791 60.3766C8.11716 58.3054 4.01674 57.636 3.03347 55.3138C2.09205 53.0126 4.49791 49.6653 4.01674 47.1548C3.53557 44.728 0 42.5523 0 40C0 37.4477 3.53557 35.251 4.01674 32.8452C4.51883 30.3556 2.09205 26.9874 3.03347 24.6862C3.99582 22.3431 8.09624 21.6946 9.49791 19.6234C10.8996 17.5314 9.95816 13.4937 11.7155 11.7155C13.4937 9.93724 17.5314 10.8996 19.6234 9.49791C21.6946 8.11715 22.364 4.01674 24.6862 3.03347C26.9874 2.09205 30.3347 4.4979 32.8452 4.01673C35.272 3.53556 37.4477 0 40 0C42.5523 0 44.749 3.53556 47.1548 4.01673C49.6444 4.51883 53.0126 2.09205 55.3138 3.03347C57.6569 3.99582 58.3055 8.09623 60.3766 9.49791C62.4686 10.8996 66.5063 9.95816 68.2845 11.7155C70.0628 13.4937 69.1004 17.5314 70.5021 19.6234C71.8829 21.6946 75.9833 22.364 76.9665 24.6862C77.908 26.9874 75.5021 30.3347 75.9833 32.8452C76.4644 35.272 80 37.4477 80 40Z" fill="#FFC6FF"/>
<path d="M50.6667 40.0003V48.0003C50.6667 50.947 48.28 53.3337 45.3333 53.3337H34.6667C31.72 53.3337 29.3333 50.947 29.3333 48.0003V40.0003C29.3333 39.267 29.9333 38.667 30.6667 38.667H33.2933C34.0267 38.667 34.6267 39.267 34.6267 40.0003V44.187C34.6267 45.1737 35.1733 46.0803 36.04 46.547C36.4267 46.7603 36.8533 46.867 37.2933 46.867C37.8 46.867 38.3067 46.7203 38.7467 46.427L40.0133 45.6003L41.1867 46.387C42 46.9337 43.04 47.0003 43.9067 46.5337C44.7867 46.067 45.3333 45.1737 45.3333 44.1737V40.0003C45.3333 39.267 45.9333 38.667 46.6667 38.667H49.3333C50.0667 38.667 50.6667 39.267 50.6667 40.0003Z" fill="#1B1F23"/>
<path d="M52.6667 33.3337V34.667C52.6667 36.1337 51.96 37.3337 50 37.3337H30C27.96 37.3337 27.3333 36.1337 27.3333 34.667V33.3337C27.3333 31.867 27.96 30.667 30 30.667H50C51.96 30.667 52.6667 31.867 52.6667 33.3337Z" fill="#1B1F23"/>
<path d="M39.52 30.6666H32.16C31.7067 30.1733 31.72 29.4133 32.2 28.9333L34.0933 27.0399C34.5867 26.5466 35.4 26.5466 35.8933 27.0399L39.52 30.6666Z" fill="#1B1F23"/>
<path d="M47.8267 30.6666H40.4667L44.0933 27.0399C44.5867 26.5466 45.4 26.5466 45.8933 27.0399L47.7867 28.9333C48.2667 29.4133 48.28 30.1733 47.8267 30.6666Z" fill="#1B1F23"/>
<path d="M42.6267 38.667C43.36 38.667 43.96 39.267 43.96 40.0003V44.1737C43.96 45.2403 42.7733 45.8803 41.8933 45.2803L40.6933 44.4803C40.2533 44.187 39.68 44.187 39.2267 44.4803L37.9733 45.307C37.0933 45.8937 35.92 45.2537 35.92 44.2003V40.0003C35.92 39.267 36.52 38.667 37.2533 38.667H42.6267Z" fill="#1B1F23"/>
</svg>
