<svg width="80" height="80" viewBox="0 0 80 80" fill="none" xmlns="http://www.w3.org/2000/svg">
<path d="M80 40C80 42.5523 76.4644 44.749 75.9833 47.1548C75.4812 49.6444 77.908 53.0126 76.9665 55.3138C76.0042 57.6569 71.9038 58.3054 70.5021 60.3766C69.1004 62.4686 70.0418 66.5063 68.2845 68.2845C66.5063 70.0628 62.4686 69.1004 60.3766 70.5021C58.3055 71.8828 57.636 75.9833 55.3138 76.9665C53.0126 77.908 49.6653 75.5021 47.1548 75.9833C44.728 76.4644 42.5523 80 40 80C37.4477 80 35.251 76.4644 32.8452 75.9833C30.3556 75.4812 26.9874 77.908 24.6862 76.9665C22.3431 76.0042 21.6946 71.9038 19.6234 70.5021C17.5314 69.1004 13.4937 70.0418 11.7155 68.2845C9.93724 66.5063 10.8996 62.4686 9.49791 60.3766C8.11716 58.3054 4.01674 57.636 3.03347 55.3138C2.09205 53.0126 4.49791 49.6653 4.01674 47.1548C3.53557 44.728 0 42.5523 0 40C0 37.4477 3.53557 35.251 4.01674 32.8452C4.51883 30.3556 2.09205 26.9874 3.03347 24.6862C3.99582 22.3431 8.09624 21.6946 9.49791 19.6234C10.8996 17.5314 9.95816 13.4937 11.7155 11.7155C13.4937 9.93724 17.5314 10.8996 19.6234 9.49791C21.6946 8.11715 22.364 4.01674 24.6862 3.03347C26.9874 2.09205 30.3347 4.4979 32.8452 4.01673C35.272 3.53556 37.4477 0 40 0C42.5523 0 44.749 3.53556 47.1548 4.01673C49.6444 4.51883 53.0126 2.09205 55.3138 3.03347C57.6569 3.99582 58.3055 8.09623 60.3766 9.49791C62.4686 10.8996 66.5063 9.95816 68.2845 11.7155C70.0628 13.4937 69.1004 17.5314 70.5021 19.6234C71.8829 21.6946 75.9833 22.364 76.9665 24.6862C77.908 26.9874 75.5021 30.3347 75.9833 32.8452C76.4644 35.272 80 37.4477 80 40Z" fill="#FFAFCC"/>
<path d="M47.4133 26.6665H32.5467C29.3067 26.6665 26.6667 29.3065 26.6667 32.5465V41.2132V41.4798C26.6667 44.7332 29.3067 47.3598 32.5467 47.3598H37.6667C38.4 47.3598 39 47.9598 39 48.6932V49.9865C39 50.7198 38.4 51.3198 37.6667 51.3198H34.44C33.8933 51.3198 33.44 51.7732 33.44 52.3198C33.44 52.8665 33.88 53.3332 34.44 53.3332H45.5733C46.12 53.3332 46.5733 52.8798 46.5733 52.3332C46.5733 51.7865 46.12 51.3332 45.5733 51.3332H42.3467C41.6133 51.3332 41.0133 50.7332 41.0133 49.9998V48.7065C41.0133 47.9732 41.6133 47.3732 42.3467 47.3732H47.4267C50.68 47.3732 53.3067 44.7332 53.3067 41.4932V41.2265V32.5598C53.2933 29.3065 50.6533 26.6665 47.4133 26.6665Z" fill="#1B1F23"/>
</svg>
