<svg width="80" height="80" viewBox="0 0 80 80" fill="none" xmlns="http://www.w3.org/2000/svg">
<path d="M80 40C80 42.5523 76.4644 44.749 75.9833 47.1548C75.4812 49.6444 77.908 53.0126 76.9665 55.3138C76.0042 57.6569 71.9038 58.3054 70.5021 60.3766C69.1004 62.4686 70.0418 66.5063 68.2845 68.2845C66.5063 70.0628 62.4686 69.1004 60.3766 70.5021C58.3055 71.8828 57.636 75.9833 55.3138 76.9665C53.0126 77.908 49.6653 75.5021 47.1548 75.9833C44.728 76.4644 42.5523 80 40 80C37.4477 80 35.251 76.4644 32.8452 75.9833C30.3556 75.4812 26.9874 77.908 24.6862 76.9665C22.3431 76.0042 21.6946 71.9038 19.6234 70.5021C17.5314 69.1004 13.4937 70.0418 11.7155 68.2845C9.93724 66.5063 10.8996 62.4686 9.49791 60.3766C8.11716 58.3054 4.01674 57.636 3.03347 55.3138C2.09205 53.0126 4.49791 49.6653 4.01674 47.1548C3.53557 44.728 0 42.5523 0 40C0 37.4477 3.53557 35.251 4.01674 32.8452C4.51883 30.3556 2.09205 26.9874 3.03347 24.6862C3.99582 22.3431 8.09624 21.6946 9.49791 19.6234C10.8996 17.5314 9.95816 13.4937 11.7155 11.7155C13.4937 9.93724 17.5314 10.8996 19.6234 9.49791C21.6946 8.11715 22.364 4.01674 24.6862 3.03347C26.9874 2.09205 30.3347 4.4979 32.8452 4.01673C35.272 3.53556 37.4477 0 40 0C42.5523 0 44.749 3.53556 47.1548 4.01673C49.6444 4.51883 53.0126 2.09205 55.3138 3.03347C57.6569 3.99582 58.3055 8.09623 60.3766 9.49791C62.4686 10.8996 66.5063 9.95816 68.2845 11.7155C70.0628 13.4937 69.1004 17.5314 70.5021 19.6234C71.8829 21.6946 75.9833 22.364 76.9665 24.6862C77.908 26.9874 75.5021 30.3347 75.9833 32.8452C76.4644 35.272 80 37.4477 80 40Z" fill="#D8E2DC"/>
<path d="M51.2133 33.2799V35.7199C51.2133 36.5733 50.8133 37.3733 50.12 37.8666L35.4533 48.6133C34.5067 49.3066 33.2133 49.3066 32.28 48.5999L30.36 47.1599C29.4933 46.5066 28.7867 45.0933 28.7867 44.0133V33.2799C28.7867 31.7866 29.9333 30.1333 31.3333 29.6133L38.6267 26.8799C39.3867 26.5999 40.6133 26.5999 41.3733 26.8799L48.6667 29.6133C50.0667 30.1333 51.2133 31.7866 51.2133 33.2799Z" fill="#1B1F23"/>
<path d="M49.0933 40.4536C49.9733 39.8136 51.2133 40.4402 51.2133 41.5336V44.0402C51.2133 45.1202 50.5067 46.5202 49.64 47.1736L42.3467 52.6269C41.7067 53.0936 40.8533 53.3336 40 53.3336C39.1467 53.3336 38.2933 53.0936 37.6533 52.6136L36.5467 51.7869C35.8267 51.2536 35.8267 50.1736 36.56 49.6402L49.0933 40.4536Z" fill="#1B1F23"/>
</svg>
