<svg width="80" height="80" viewBox="0 0 80 80" fill="none" xmlns="http://www.w3.org/2000/svg">
<path d="M80 40C80 42.5523 76.4644 44.749 75.9833 47.1548C75.4812 49.6444 77.908 53.0126 76.9665 55.3138C76.0042 57.6569 71.9038 58.3054 70.5021 60.3766C69.1004 62.4686 70.0418 66.5063 68.2845 68.2845C66.5063 70.0628 62.4686 69.1004 60.3766 70.5021C58.3055 71.8828 57.636 75.9833 55.3138 76.9665C53.0126 77.908 49.6653 75.5021 47.1548 75.9833C44.728 76.4644 42.5523 80 40 80C37.4477 80 35.251 76.4644 32.8452 75.9833C30.3556 75.4812 26.9874 77.908 24.6862 76.9665C22.3431 76.0042 21.6946 71.9038 19.6234 70.5021C17.5314 69.1004 13.4937 70.0418 11.7155 68.2845C9.93724 66.5063 10.8996 62.4686 9.49791 60.3766C8.11716 58.3054 4.01674 57.636 3.03347 55.3138C2.09205 53.0126 4.49791 49.6653 4.01674 47.1548C3.53557 44.728 0 42.5523 0 40C0 37.4477 3.53557 35.251 4.01674 32.8452C4.51883 30.3556 2.09205 26.9874 3.03347 24.6862C3.99582 22.3431 8.09624 21.6946 9.49791 19.6234C10.8996 17.5314 9.95816 13.4937 11.7155 11.7155C13.4937 9.93724 17.5314 10.8996 19.6234 9.49791C21.6946 8.11715 22.364 4.01674 24.6862 3.03347C26.9874 2.09205 30.3347 4.4979 32.8452 4.01673C35.272 3.53556 37.4477 0 40 0C42.5523 0 44.749 3.53556 47.1548 4.01673C49.6444 4.51883 53.0126 2.09205 55.3138 3.03347C57.6569 3.99582 58.3055 8.09623 60.3766 9.49791C62.4686 10.8996 66.5063 9.95816 68.2845 11.7155C70.0628 13.4937 69.1004 17.5314 70.5021 19.6234C71.8829 21.6946 75.9833 22.364 76.9665 24.6862C77.908 26.9874 75.5021 30.3347 75.9833 32.8452C76.4644 35.272 80 37.4477 80 40Z" fill="#BDE0FE"/>
<path d="M52.08 39.7598L51.8667 39.4665C51.4933 39.0131 51.0533 38.6531 50.5467 38.3865C49.8667 37.9998 49.0933 37.7998 48.2933 37.7998H31.6933C30.8933 37.7998 30.1333 37.9998 29.44 38.3865C28.92 38.6665 28.4533 39.0531 28.0667 39.5331C27.3067 40.5065 26.9467 41.7065 27.0667 42.9065L27.56 49.1331C27.7333 51.0131 27.96 53.3331 32.1867 53.3331H47.8133C52.04 53.3331 52.2533 51.0131 52.44 49.1198L52.9333 42.9198C53.0533 41.7998 52.76 40.6798 52.08 39.7598ZM43.1867 47.1198H36.8C36.28 47.1198 35.8667 46.6931 35.8667 46.1865C35.8667 45.6798 36.28 45.2531 36.8 45.2531H43.1867C43.7067 45.2531 44.12 45.6798 44.12 46.1865C44.12 46.7065 43.7067 47.1198 43.1867 47.1198Z" fill="#1B1F23"/>
<path d="M51.4395 35.7477C51.4685 36.1313 51.055 36.3873 50.6961 36.2488C49.943 35.9584 49.143 35.8132 48.3067 35.8132H31.6933C30.8538 35.8132 30.0288 35.9668 29.2728 36.2579C28.918 36.3945 28.5067 36.1482 28.5067 35.7681V32.8798C28.5067 28.1198 29.96 26.6665 34.72 26.6665H36.2933C38.2 26.6665 38.8 27.2798 39.5733 28.2798L41.1733 30.4132C41.5067 30.8665 41.52 30.8932 42.1067 30.8932H45.28C49.5606 30.8932 51.1625 32.0708 51.4395 35.7477Z" fill="#1B1F23"/>
</svg>
