<svg width="80" height="81" viewBox="0 0 80 81" fill="none" xmlns="http://www.w3.org/2000/svg">
<path d="M80 40.5C80 43.0523 76.4644 45.249 75.9833 47.6548C75.4812 50.1444 77.908 53.5126 76.9665 55.8138C76.0042 58.1569 71.9038 58.8054 70.5021 60.8766C69.1004 62.9686 70.0418 67.0063 68.2845 68.7845C66.5063 70.5628 62.4686 69.6004 60.3766 71.0021C58.3055 72.3828 57.636 76.4833 55.3138 77.4665C53.0126 78.408 49.6653 76.0021 47.1548 76.4833C44.728 76.9644 42.5523 80.5 40 80.5C37.4477 80.5 35.251 76.9644 32.8452 76.4833C30.3556 75.9812 26.9874 78.408 24.6862 77.4665C22.3431 76.5042 21.6946 72.4038 19.6234 71.0021C17.5314 69.6004 13.4937 70.5418 11.7155 68.7845C9.93724 67.0063 10.8996 62.9686 9.49791 60.8766C8.11716 58.8054 4.01674 58.136 3.03347 55.8138C2.09205 53.5126 4.49791 50.1653 4.01674 47.6548C3.53557 45.228 0 43.0523 0 40.5C0 37.9477 3.53557 35.751 4.01674 33.3452C4.51883 30.8556 2.09205 27.4874 3.03347 25.1862C3.99582 22.8431 8.09624 22.1946 9.49791 20.1234C10.8996 18.0314 9.95816 13.9937 11.7155 12.2155C13.4937 10.4372 17.5314 11.3996 19.6234 9.99791C21.6946 8.61715 22.364 4.51674 24.6862 3.53347C26.9874 2.59205 30.3347 4.9979 32.8452 4.51673C35.272 4.03556 37.4477 0.5 40 0.5C42.5523 0.5 44.749 4.03556 47.1548 4.51673C49.6444 5.01883 53.0126 2.59205 55.3138 3.53347C57.6569 4.49582 58.3055 8.59623 60.3766 9.99791C62.4686 11.3996 66.5063 10.4582 68.2845 12.2155C70.0628 13.9937 69.1004 18.0314 70.5021 20.1234C71.8829 22.1946 75.9833 22.864 76.9665 25.1862C77.908 27.4874 75.5021 30.8347 75.9833 33.3452C76.4644 35.772 80 37.9477 80 40.5Z" fill="#FCD5CE"/>
<path d="M52.12 34.307C50.9867 33.0537 49.0933 32.427 46.3467 32.427H46.0267V32.3737C46.0267 30.1337 46.0267 27.3604 41.0133 27.3604H38.9867C33.9733 27.3604 33.9733 30.147 33.9733 32.3737V32.4404H33.6533C30.8933 32.4404 29.0133 33.067 27.88 34.3204C26.56 35.787 26.6 37.7604 26.7333 39.107L26.7467 39.2004L26.8575 40.3636C26.8717 40.5134 26.9526 40.6488 27.0783 40.7314C27.3853 40.9329 27.976 41.3159 28.32 41.507C28.5067 41.627 28.7067 41.7337 28.9067 41.8404C31.1867 43.0937 33.6933 43.9337 36.24 44.347C36.36 45.6004 36.9067 47.067 39.8267 47.067C42.7467 47.067 43.32 45.6137 43.4133 44.3204C46.1333 43.8804 48.76 42.9337 51.1333 41.547C51.2133 41.507 51.2667 41.467 51.3333 41.427C51.8832 41.1162 52.4545 40.7304 52.9703 40.3561C53.0831 40.2743 53.1554 40.1483 53.1708 40.0098L53.2 39.747L53.2667 39.1204C53.28 39.0404 53.28 38.9737 53.2933 38.8804C53.4 37.5337 53.3733 35.6937 52.12 34.307ZM41.4533 43.4404C41.4533 44.8537 41.4533 45.067 39.8133 45.067C38.1733 45.067 38.1733 44.8137 38.1733 43.4537V41.7737H41.4533V43.4404ZM35.88 32.427V32.3737C35.88 30.107 35.88 29.267 38.9867 29.267H41.0133C44.12 29.267 44.12 30.1204 44.12 32.3737V32.4404H35.88V32.427Z" fill="#1B1F23"/>
<path d="M52.1028 43.1828C52.4558 43.0133 52.861 43.2942 52.8256 43.6841L52.32 49.2536C52.04 51.9203 50.9467 54.6403 45.08 54.6403H34.92C29.0533 54.6403 27.96 51.9203 27.68 49.267L27.1993 43.9791C27.1642 43.5937 27.5609 43.3135 27.9131 43.4741C29.3707 44.1393 32.4936 45.5171 34.3225 45.9782C34.4872 46.0197 34.6211 46.1374 34.69 46.2927C35.4817 48.0767 37.2522 49.027 39.8267 49.027C42.3757 49.027 44.1694 48.0401 44.9632 46.2529C45.0322 46.0975 45.1666 45.9798 45.3314 45.9381C47.2711 45.4477 50.5839 43.9119 52.1028 43.1828Z" fill="#1B1F23"/>
</svg>
