<svg width="80" height="80" viewBox="0 0 80 80" fill="none" xmlns="http://www.w3.org/2000/svg">
<path d="M80 40C80 42.5523 76.4644 44.749 75.9833 47.1548C75.4812 49.6444 77.908 53.0126 76.9665 55.3138C76.0042 57.6569 71.9038 58.3054 70.5021 60.3766C69.1004 62.4686 70.0418 66.5063 68.2845 68.2845C66.5063 70.0628 62.4686 69.1004 60.3766 70.5021C58.3055 71.8828 57.636 75.9833 55.3138 76.9665C53.0126 77.908 49.6653 75.5021 47.1548 75.9833C44.728 76.4644 42.5523 80 40 80C37.4477 80 35.251 76.4644 32.8452 75.9833C30.3556 75.4812 26.9874 77.908 24.6862 76.9665C22.3431 76.0042 21.6946 71.9038 19.6234 70.5021C17.5314 69.1004 13.4937 70.0418 11.7155 68.2845C9.93724 66.5063 10.8996 62.4686 9.49791 60.3766C8.11716 58.3054 4.01674 57.636 3.03347 55.3138C2.09205 53.0126 4.49791 49.6653 4.01674 47.1548C3.53557 44.728 0 42.5523 0 40C0 37.4477 3.53557 35.251 4.01674 32.8452C4.51883 30.3556 2.09205 26.9874 3.03347 24.6862C3.99582 22.3431 8.09624 21.6946 9.49791 19.6234C10.8996 17.5314 9.95816 13.4937 11.7155 11.7155C13.4937 9.93724 17.5314 10.8996 19.6234 9.49791C21.6946 8.11715 22.364 4.01674 24.6862 3.03347C26.9874 2.09205 30.3347 4.4979 32.8452 4.01673C35.272 3.53556 37.4477 0 40 0C42.5523 0 44.749 3.53556 47.1548 4.01673C49.6444 4.51883 53.0126 2.09205 55.3138 3.03347C57.6569 3.99582 58.3055 8.09623 60.3766 9.49791C62.4686 10.8996 66.5063 9.95816 68.2845 11.7155C70.0628 13.4937 69.1004 17.5314 70.5021 19.6234C71.8829 21.6946 75.9833 22.364 76.9665 24.6862C77.908 26.9874 75.5021 30.3347 75.9833 32.8452C76.4644 35.272 80 37.4477 80 40Z" fill="#E9EDC9"/>
<path d="M51.3333 45.3333V48.6667C51.3333 51.24 49.24 53.3333 46.6667 53.3333H33.3333C30.76 53.3333 28.6667 51.24 28.6667 48.6667V47.8C28.6667 45.7067 30.3733 44 32.4667 44H50C50.7333 44 51.3333 44.6 51.3333 45.3333Z" fill="#1B1F23"/>
<path d="M44.6667 26.667H35.3333C30 26.667 28.6667 28.0003 28.6667 33.3337V43.4403C29.68 42.547 31.0133 42.0003 32.4667 42.0003H50C50.7333 42.0003 51.3333 41.4003 51.3333 40.667V33.3337C51.3333 28.0003 50 26.667 44.6667 26.667ZM41.3333 38.3337H34.6667C34.12 38.3337 33.6667 37.8803 33.6667 37.3337C33.6667 36.787 34.12 36.3337 34.6667 36.3337H41.3333C41.88 36.3337 42.3333 36.787 42.3333 37.3337C42.3333 37.8803 41.88 38.3337 41.3333 38.3337ZM45.3333 33.667H34.6667C34.12 33.667 33.6667 33.2137 33.6667 32.667C33.6667 32.1203 34.12 31.667 34.6667 31.667H45.3333C45.88 31.667 46.3333 32.1203 46.3333 32.667C46.3333 33.2137 45.88 33.667 45.3333 33.667Z" fill="#1B1F23"/>
</svg>
