<?xml version="1.0" encoding="UTF-8"?>
<!DOCTYPE svg PUBLIC "-//W3C//DTD SVG 1.1//EN" "http://www.w3.org/Graphics/SVG/1.1/DTD/svg11.dtd">
<!-- Creator: CorelDRAW -->
<svg xmlns="http://www.w3.org/2000/svg" xml:space="preserve" width="5.38384in" height="5.38384in" version="1.1" style="shape-rendering:geometricPrecision; text-rendering:geometricPrecision; image-rendering:optimizeQuality; fill-rule:evenodd; clip-rule:evenodd"
viewBox="0 0 5383.84 5383.84"
 xmlns:xlink="http://www.w3.org/1999/xlink"
 xmlns:xodm="http://www.corel.com/coreldraw/odm/2003">
 <defs>
  <style type="text/css">
   <![CDATA[
    .fil0 {fill:#FEFEFE}
    .fil4 {fill:#ED3237}
    .fil3 {fill:#F9F9FC;fill-rule:nonzero}
    .fil2 {fill:#989B9D;fill-rule:nonzero}
    .fil1 {fill:#3E4095;fill-rule:nonzero}
   ]]>
  </style>
 </defs>
 <g id="Layer_x0020_1">
  <metadata id="CorelCorpID_0Corel-Layer"/>
  <g id="_2006700931232">
   <rect class="fil0" x="-0.01" y="-0.01" width="5383.84" height="5383.84"/>
   <g>
    <g>
     <g>
      <path class="fil1" d="M1373.59 1594.35c392.59,-109.07 785.34,-217.61 1177.49,-328.07 38.4,-10.79 45.97,-4.25 45.68,35.04 -1.68,246.15 -1.33,492.36 -0.2,738.57 0.1,31.22 -6.93,44.87 -40.23,53.59 -427.83,112.1 -822.95,291.54 -1177.29,583.81l0 -341.72c0.55,-77.06 2.39,-154.15 1.05,-231.21 -0.8,-43.15 6.72,-86.99 -6.5,-129.61l0 -380.42z"/>
      <path class="fil2" d="M1373.59 1974.74c13.22,42.62 5.7,86.46 6.5,129.66 1.33,77.06 -0.5,154.16 -1.05,231.21 0,-0.06 -1.78,3.56 -1.78,3.56l-3.66 -1.74 0 -362.7z"/>
      <path class="fil2" d="M3675.55 3497.82c-32.41,0 -64.82,-0.1 -97.19,0.04 -11.83,0.06 -22.61,-0.2 -27.22,15.59 -12.18,42.22 2.27,62.76 46.17,62.9 17.72,0.1 35.43,-0.74 53.05,0.3 15.63,0.9 37.32,-8.11 45.58,5.69 10.93,18.27 -8.02,35.24 -16.52,51.57 -5.35,10.2 -14.06,18.85 -22.02,27.46 -54.99,59.73 -126.59,62.06 -200.09,57.56 -103.19,-6.34 -191.18,-87.59 -200.34,-184.8 -11.12,-118.37 52.41,-213.59 160.85,-240.91 89.12,-22.42 170.43,-3.86 239.91,54.19 37.31,31.13 47.96,-3.22 65.78,-19.26 27.96,-25.24 -3.17,-35.48 -16.09,-46.26 -75.28,-62.61 -163.65,-83.05 -259.76,-77.2 -167.67,10.14 -300.35,178.1 -272.19,341.26 28.11,163.06 165.94,273.58 350.43,257.19 130.86,-11.57 229.59,-92.84 259.07,-205.04 24.9,-94.52 20.54,-100.36 -74.08,-100.36 -11.77,0 -23.56,0 -35.34,0.06zm-906.08 -231.61c0,-352.32 0.8,-704.62 -0.98,-1056.93 -0.2,-39.94 13.11,-51.72 50.12,-58.89 250.96,-48.8 504.54,-69.29 759.5,-66.76 129.27,1.29 258.97,4.95 387.94,20.63 31.97,3.86 37.17,15.78 37.07,44.05 -1.94,396.55 0.44,793.1 -5.2,1189.6 -3.21,225.48 -3.21,450.89 -4.31,676.37 -0.14,34.74 -11.32,47.75 -43.39,56.21 -375.58,98.48 -750.79,198.2 -1126.11,297.58 -54.59,14.45 -54.64,14.49 -54.64,-40.48l0 -1061.38z"/>
      <path class="fil1" d="M2196.46 3610.93c-61.75,-141.39 -119.51,-273.58 -180.69,-413.62 -61.75,143.56 -119.17,277.03 -179.74,417.83 -49.93,-115.66 -96.99,-224.24 -143.7,-332.92 -27.96,-65.12 -27.76,-65.22 -107.74,-56.66 82.74,191.82 164.99,382.5 250.7,581.29 62.22,-143.07 119.92,-275.65 180.64,-415.2 60.93,139.7 119.02,272.87 181.08,415.2 85.81,-199.98 167.31,-390.11 249.42,-581.58 -80.46,-7.73 -80.11,-7.57 -109.77,61.46 -45.03,104.87 -90.55,209.48 -140.2,324.2zm399.43 -1397.21l0 50.28c0,612.96 0.04,1225.93 0,1838.89 0,51.04 -0.06,51.08 -48.69,38.11 -373.74,-99.28 -747.33,-199.09 -1121.42,-297.07 -29.25,-7.67 -36.18,-19.65 -36.32,-47.67 -1.54,-300.58 -4.11,-601.14 -7.13,-901.72 -0.25,-23.67 5,-40.44 24.4,-56.77 343.89,-289.31 730.39,-498.1 1163.96,-618.45 6.93,-1.88 14.01,-3.13 25.19,-5.6z"/>
      <path class="fil2" d="M2769.5 1520.98c0,-159.09 0.94,-318.2 -0.74,-477.25 -0.35,-34.79 6.93,-41.88 41.43,-32.13 387.59,109.32 775.48,217.45 1163.57,324.94 25.08,6.93 36.81,15.4 36.26,44 -3.26,186.97 1.19,373.98 -5.78,561 -1.24,33.6 -17.13,34.93 -41.62,32.7 -123.42,-11.18 -247.19,-9.59 -370.82,-7.66 -259.22,3.95 -516.7,27.26 -771.37,77.04 -36.08,7.08 -52.66,3.17 -51.96,-40.98 2.57,-160.48 1.04,-321.07 1.04,-481.67z"/>
      <path class="fil3" d="M3675.55 3497.8c11.78,0 23.57,0 35.34,0 94.62,0 98.98,5.83 74.08,100.31 -29.49,112.19 -128.22,193.45 -259.07,205.08 -184.48,16.37 -322.31,-94.19 -350.43,-257.25 -28.15,-163.16 104.53,-331.07 272.19,-341.26 96.11,-5.84 184.48,14.6 259.76,77.2 12.92,10.79 44.05,21.03 16.09,46.28 -17.81,16.03 -28.46,50.37 -65.78,19.24 -69.48,-58 -150.79,-76.56 -239.91,-54.13 -108.44,27.26 -171.97,122.48 -160.85,240.85 9.16,97.24 97.15,178.45 200.34,184.8 73.5,4.56 145.09,2.23 200.09,-57.5 7.97,-8.67 16.68,-17.27 22.02,-27.52 8.5,-16.33 27.45,-33.25 16.52,-51.51 -8.26,-13.81 -29.95,-4.8 -45.58,-5.74 -17.62,-1.04 -35.33,-0.15 -53.05,-0.25 -43.9,-0.2 -58.35,-20.73 -46.17,-62.9 4.6,-15.84 15.39,-15.59 27.22,-15.64 32.36,-0.14 64.78,-0.04 97.19,-0.04z"/>
      <path class="fil3" d="M2196.46 3610.93c49.65,-114.72 95.17,-219.33 140.2,-324.2 29.66,-69.04 29.31,-69.19 109.77,-61.46 -82.11,191.47 -163.61,381.6 -249.42,581.58 -62.06,-142.33 -120.15,-275.5 -181.08,-415.2 -60.72,139.55 -118.43,272.13 -180.64,415.2 -85.71,-198.79 -167.96,-389.46 -250.7,-581.29 79.98,-8.56 79.78,-8.46 107.74,56.66 46.72,108.68 93.78,217.26 143.7,332.92 60.57,-140.8 117.99,-274.27 179.74,-417.83 61.18,140.04 118.93,272.23 180.69,413.62z"/>
     </g>
     <circle class="fil4" cx="2682.64" cy="2117.33" r="85.79"/>
    </g>
   </g>
  </g>
 </g>
</svg>
