<svg width="80" height="80" viewBox="0 0 80 80" fill="none" xmlns="http://www.w3.org/2000/svg">
<path d="M80 40C80 42.5523 76.4644 44.749 75.9833 47.1548C75.4812 49.6444 77.908 53.0126 76.9665 55.3138C76.0042 57.6569 71.9038 58.3054 70.5021 60.3766C69.1004 62.4686 70.0418 66.5063 68.2845 68.2845C66.5063 70.0628 62.4686 69.1004 60.3766 70.5021C58.3055 71.8828 57.636 75.9833 55.3138 76.9665C53.0126 77.908 49.6653 75.5021 47.1548 75.9833C44.728 76.4644 42.5523 80 40 80C37.4477 80 35.251 76.4644 32.8452 75.9833C30.3556 75.4812 26.9874 77.908 24.6862 76.9665C22.3431 76.0042 21.6946 71.9038 19.6234 70.5021C17.5314 69.1004 13.4937 70.0418 11.7155 68.2845C9.93724 66.5063 10.8996 62.4686 9.49791 60.3766C8.11716 58.3054 4.01674 57.636 3.03347 55.3138C2.09205 53.0126 4.49791 49.6653 4.01674 47.1548C3.53557 44.728 0 42.5523 0 40C0 37.4477 3.53557 35.251 4.01674 32.8452C4.51883 30.3556 2.09205 26.9874 3.03347 24.6862C3.99582 22.3431 8.09624 21.6946 9.49791 19.6234C10.8996 17.5314 9.95816 13.4937 11.7155 11.7155C13.4937 9.93724 17.5314 10.8996 19.6234 9.49791C21.6946 8.11715 22.364 4.01674 24.6862 3.03347C26.9874 2.09205 30.3347 4.4979 32.8452 4.01673C35.272 3.53556 37.4477 0 40 0C42.5523 0 44.749 3.53556 47.1548 4.01673C49.6444 4.51883 53.0126 2.09205 55.3138 3.03347C57.6569 3.99582 58.3055 8.09623 60.3766 9.49791C62.4686 10.8996 66.5063 9.95816 68.2845 11.7155C70.0628 13.4937 69.1004 17.5314 70.5021 19.6234C71.8829 21.6946 75.9833 22.364 76.9665 24.6862C77.908 26.9874 75.5021 30.3347 75.9833 32.8452C76.4644 35.272 80 37.4477 80 40Z" fill="#FFB5A7"/>
<path d="M39.0933 28H30.7867C28.1333 28 26.8 29.3467 26.8 32.0267V53.3333H34V48.3333C34 47.7867 34.4533 47.3333 35 47.3333C35.5467 47.3333 36 47.7733 36 48.3333V53.3333H43.0667V32.0267C43.0667 29.3467 41.7467 28 39.0933 28ZM38.3333 41H31.7333C31.1867 41 30.7333 40.5467 30.7333 40C30.7333 39.4533 31.1867 39 31.7333 39H38.3333C38.88 39 39.3333 39.4533 39.3333 40C39.3333 40.5467 38.88 41 38.3333 41ZM38.3333 36H31.7333C31.1867 36 30.7333 35.5467 30.7333 35C30.7333 34.4533 31.1867 34 31.7333 34H38.3333C38.88 34 39.3333 34.4533 39.3333 35C39.3333 35.5467 38.88 36 38.3333 36Z" fill="#1B1F23"/>
<path d="M54.6666 52.3332H51.64V48.3332C52.9066 47.9198 53.8266 46.7332 53.8266 45.3332V42.6665C53.8266 40.9198 52.4 39.4932 50.6533 39.4932C48.9066 39.4932 47.48 40.9198 47.48 42.6665V45.3332C47.48 46.7198 48.3866 47.8932 49.6266 48.3198V52.3332H25.3333C24.7866 52.3332 24.3333 52.7865 24.3333 53.3332C24.3333 53.8798 24.7866 54.3332 25.3333 54.3332H50.5733C50.6 54.3332 50.6133 54.3465 50.64 54.3465C50.6666 54.3465 50.68 54.3332 50.7066 54.3332H54.6666C55.2133 54.3332 55.6666 53.8798 55.6666 53.3332C55.6666 52.7865 55.2133 52.3332 54.6666 52.3332Z" fill="#1B1F23"/>
</svg>
