<svg width="35" height="34" viewBox="0 0 35 34" fill="none" xmlns="http://www.w3.org/2000/svg">
<path d="M33.7667 23.5334L23.1 4.33337C21.6667 1.75004 19.6833 0.333374 17.5 0.333374C15.3167 0.333374 13.3333 1.75004 11.9 4.33337L1.23333 23.5334C-0.116673 25.9834 -0.266673 28.3334 0.81666 30.1834C1.89999 32.0334 4.03333 33.05 6.83333 33.05H28.1667C30.9667 33.05 33.1 32.0334 34.1833 30.1834C35.2667 28.3334 35.1167 25.9667 33.7667 23.5334ZM16.25 12C16.25 11.3167 16.8167 10.75 17.5 10.75C18.1833 10.75 18.75 11.3167 18.75 12V20.3334C18.75 21.0167 18.1833 21.5834 17.5 21.5834C16.8167 21.5834 16.25 21.0167 16.25 20.3334V12ZM18.6833 26.5167C18.6 26.5834 18.5167 26.65 18.4333 26.7167C18.3333 26.7834 18.2333 26.8334 18.1333 26.8667C18.0333 26.9167 17.9333 26.95 17.8167 26.9667C17.7167 26.9834 17.6 27 17.5 27C17.4 27 17.2833 26.9834 17.1667 26.9667C17.0667 26.95 16.9667 26.9167 16.8667 26.8667C16.7667 26.8334 16.6667 26.7834 16.5667 26.7167C16.4833 26.65 16.4 26.5834 16.3167 26.5167C16.0167 26.2 15.8333 25.7667 15.8333 25.3334C15.8333 24.9 16.0167 24.4667 16.3167 24.15C16.4 24.0834 16.4833 24.0167 16.5667 23.95C16.6667 23.8834 16.7667 23.8334 16.8667 23.8C16.9667 23.75 17.0667 23.7167 17.1667 23.7C17.3833 23.65 17.6167 23.65 17.8167 23.7C17.9333 23.7167 18.0333 23.75 18.1333 23.8C18.2333 23.8334 18.3333 23.8834 18.4333 23.95C18.5167 24.0167 18.6 24.0834 18.6833 24.15C18.9833 24.4667 19.1667 24.9 19.1667 25.3334C19.1667 25.7667 18.9833 26.2 18.6833 26.5167Z" fill="#E3A008"/>
</svg>
